HIERARCHY
ROOT Hips
{
	OFFSET 0.000000 0.355653 0.000000
	CHANNELS 6 Xposition Yposition Zposition Zrotation Yrotation Xrotation 
	JOINT BN_Bip01_Pelvis
	{
		OFFSET 0.001385 -0.097144 -0.042259
		CHANNELS 3 Zrotation Yrotation Xrotation
		JOINT BN_leg_R_01
		{
			OFFSET -0.137791 0.060421 0.195317
			CHANNELS 3 Zrotation Yrotation Xrotation
			JOINT BN_leg_R_02
			{
				OFFSET -0.127778 -0.058327 0.049254
				CHANNELS 3 Zrotation Yrotation Xrotation
				JOINT BN_leg_R_03
				{
					OFFSET -0.182261 0.164187 0.088032
					CHANNELS 3 Zrotation Yrotation Xrotation
					JOINT BN_leg_R_04
					{
						OFFSET -0.075506 -0.093244 0.108442
						CHANNELS 3 Zrotation Yrotation Xrotation
						JOINT BN_leg_R_05
						{
							OFFSET -0.066323 -0.143714 0.082963
							CHANNELS 3 Zrotation Yrotation Xrotation
							End Site #name: BN_Leg_R_05Nub
							{
								OFFSET 0.008223 -0.180634 0.044677
							}
						}
					}
				}
			}
		}
		JOINT BN_leg_R_06
		{
			OFFSET -0.138420 0.035509 0.120057
			CHANNELS 3 Zrotation Yrotation Xrotation
			JOINT BN_Leg_R_07
			{
				OFFSET -0.090247 -0.112371 -0.044904
				CHANNELS 3 Zrotation Yrotation Xrotation
				JOINT BN_Leg_R_08
				{
					OFFSET -0.193457 0.244574 0.031610
					CHANNELS 3 Zrotation Yrotation Xrotation
					JOINT BN_Leg_R_09
					{
						OFFSET -0.152463 -0.100001 0.017686
						CHANNELS 3 Zrotation Yrotation Xrotation
						JOINT BN_Leg_R_10
						{
							OFFSET -0.106366 -0.146412 0.015324
							CHANNELS 3 Zrotation Yrotation Xrotation
							End Site #name: BN_Leg_R_10Nub
							{
								OFFSET -0.055024 -0.179808 0.007017
							}
						}
					}
				}
			}
		}
		JOINT BN_Leg_R_11
		{
			OFFSET -0.135395 0.041295 0.027078
			CHANNELS 3 Zrotation Yrotation Xrotation
			JOINT BN_Leg_R_12
			{
				OFFSET -0.108844 -0.068995 -0.102870
				CHANNELS 3 Zrotation Yrotation Xrotation
				JOINT BN_Leg_R_13
				{
					OFFSET -0.283612 0.205390 -0.103856
					CHANNELS 3 Zrotation Yrotation Xrotation
					JOINT BN_Leg_R_14
					{
						OFFSET -0.133832 -0.079693 -0.097507
						CHANNELS 3 Zrotation Yrotation Xrotation
						JOINT BN_Leg_R_15
						{
							OFFSET -0.115811 -0.144183 -0.109942
							CHANNELS 3 Zrotation Yrotation Xrotation
							End Site #name: BN_Leg_R_15Nub
							{
								OFFSET -0.037504 -0.198523 -0.082493
							}
						}
					}
				}
			}
		}
		JOINT BN_Leg_L_11
		{
			OFFSET 0.136441 0.015960 0.043582
			CHANNELS 3 Zrotation Yrotation Xrotation
			JOINT BN_Leg_L_12
			{
				OFFSET 0.122569 -0.037706 -0.103657
				CHANNELS 3 Zrotation Yrotation Xrotation
				JOINT BN_Leg_L_13
				{
					OFFSET 0.295322 0.178819 -0.119229
					CHANNELS 3 Zrotation Yrotation Xrotation
					JOINT BN_Leg_L_14
					{
						OFFSET 0.141702 -0.062798 -0.098724
						CHANNELS 3 Zrotation Yrotation Xrotation
						JOINT BN_Leg_L_15
						{
							OFFSET 0.117384 -0.139215 -0.114578
							CHANNELS 3 Zrotation Yrotation Xrotation
							End Site #name: BN_Leg_L_15Nub
							{
								OFFSET 0.021222 -0.201050 -0.082169
							}
						}
					}
				}
			}
		}
		JOINT BN_leg_L_06
		{
			OFFSET 0.127175 0.010755 0.136183
			CHANNELS 3 Zrotation Yrotation Xrotation
			JOINT BN_Leg_L_07
			{
				OFFSET 0.139565 -0.057519 0.001151
				CHANNELS 3 Zrotation Yrotation Xrotation
				JOINT BN_Leg_L_08
				{
					OFFSET 0.196508 0.228122 0.087098
					CHANNELS 3 Zrotation Yrotation Xrotation
					JOINT BN_Leg_L_09
					{
						OFFSET 0.150971 -0.089265 0.052894
						CHANNELS 3 Zrotation Yrotation Xrotation
						JOINT BN_Leg_L_10
						{
							OFFSET 0.074997 -0.162432 0.031250
							CHANNELS 3 Zrotation Yrotation Xrotation
							End Site #name: BN_Leg_L_10Nub
							{
								OFFSET -0.019489 -0.187098 -0.004782
							}
						}
					}
				}
			}
		}
		JOINT BN_leg_L_01
		{
			OFFSET 0.122120 0.036197 0.211097
			CHANNELS 3 Zrotation Yrotation Xrotation
			JOINT BN_leg_L_02
			{
				OFFSET 0.098964 -0.029918 0.107081
				CHANNELS 3 Zrotation Yrotation Xrotation
				JOINT BN_leg_L_03
				{
					OFFSET 0.145673 0.134033 0.169530
					CHANNELS 3 Zrotation Yrotation Xrotation
					JOINT BN_leg_L_04
					{
						OFFSET 0.054509 -0.068333 0.136069
						CHANNELS 3 Zrotation Yrotation Xrotation
						JOINT BN_leg_L_05
						{
							OFFSET 0.060835 -0.137132 0.097105
							CHANNELS 3 Zrotation Yrotation Xrotation
							End Site #name: BN_Leg_L_05Nub
							{
								OFFSET -0.002555 -0.186155 0.005670
							}
						}
					}
				}
			}
		}
		JOINT BN_Eye_L_01
		{
			OFFSET 0.044635 0.276371 0.393959
			CHANNELS 3 Zrotation Yrotation Xrotation
			JOINT BN_Eye_L_02
			{
				OFFSET 0.022325 -0.005102 0.030904
				CHANNELS 3 Zrotation Yrotation Xrotation
				JOINT BN_Eye_L_03
				{
					OFFSET 0.051583 0.048870 0.053339
					CHANNELS 3 Zrotation Yrotation Xrotation
					End Site #name: BN_Eye_L_04
					{
						OFFSET 0.094442 0.115468 0.063789
					}
				}
			}
		}
		JOINT BN_Eye_R_01
		{
			OFFSET -0.039908 0.284250 0.388826
			CHANNELS 3 Zrotation Yrotation Xrotation
			JOINT BN_Eye_R_02
			{
				OFFSET -0.026499 -0.001431 0.027844
				CHANNELS 3 Zrotation Yrotation Xrotation
				JOINT BN_Eye_R_03
				{
					OFFSET -0.044253 0.061236 0.046755
					CHANNELS 3 Zrotation Yrotation Xrotation
					End Site #name: BN_Eye_R_04
					{
						OFFSET -0.070536 0.134599 0.056827
					}
				}
			}
		}
		JOINT BN_Arm_L_01
		{
			OFFSET 0.123538 0.070264 0.297533
			CHANNELS 3 Zrotation Yrotation Xrotation
			JOINT BN_Arm_L_02
			{
				OFFSET 0.239058 0.067886 0.133467
				CHANNELS 3 Zrotation Yrotation Xrotation
				JOINT BN_Arm_L_03
				{
					OFFSET 0.009897 0.079834 0.115571
					CHANNELS 3 Zrotation Yrotation Xrotation
					End Site #name: BN_Arm_L_04
					{
						OFFSET -0.052434 0.086212 0.083041
					}
				}
			}
		}
		JOINT BN_Arm_R_01
		{
			OFFSET -0.123499 0.066352 0.280577
			CHANNELS 3 Zrotation Yrotation Xrotation
			JOINT BN_Arm_R_02
			{
				OFFSET -0.262180 0.121720 0.166928
				CHANNELS 3 Zrotation Yrotation Xrotation
				JOINT BN_Arm_R_03
				{
					OFFSET -0.047185 0.144567 0.248779
					CHANNELS 3 Zrotation Yrotation Xrotation
					End Site #name: BN_Arm_R_04
					{
						OFFSET 0.091969 0.172364 0.168721
					}
				}
			}
		}
	}
}
MOTION
Frames: 8
Frame Time: 0.041667
-0.010302 0.305046 0.312958 26.071288 19.064147 59.705524 -0.325324 -0.025134 -9.896443 -37.541213 -31.408099 -42.499802 24.241933 10.406924 16.971490 7.781535 -24.096630 -41.256016 -16.087623 -12.004648 21.300477 -20.992313 -9.687823 40.186019 -25.225718 -13.628245 11.836874 1.291358 26.010568 -38.611182 -23.110479 -38.071683 -31.777784 -12.598814 -18.157104 21.733926 -11.950868 -8.805207 23.738162 76.717618 0.150114 -4.295395 -47.066042 -32.939949 10.405135 -24.347166 17.334077 -37.393698 7.553028 -2.526746 -4.131725 9.060450 -3.907026 -4.963005 -10.344226 41.737442 -132.083997 -42.658600 11.029038 -21.494788 40.546568 8.476358 25.349589 22.773715 -5.190609 20.214660 25.939919 -13.168777 33.909363 -50.658735 10.433169 -131.478968 -131.778262 13.708964 28.842183 17.610565 60.996913 -114.654239 80.949128 16.958106 -4.737782 77.585065 10.276681 -10.109848 -84.380667 -6.980359 -79.080053 -98.483598 -29.286022 108.825833 -56.030962 -12.062179 -160.935275 37.251775 26.510199 -50.572220 73.745152 50.513201 -36.965658 -73.885196 -23.081750 -49.132774 -44.649033 -56.795627 40.506109 17.209116 -27.852231 6.642230 -75.491399 58.577130 65.965491 83.871709 -78.439610 5.397320 37.202775 -16.350007 18.438620 -2.319245 17.334141 -35.763726 -26.347037 1.309624 -1.507372 -5.500152 5.839349 21.877876 -48.307583 14.531191 14.415314 -11.184160 -26.733462 -28.952155 8.823931 12.797475 -28.471068 
-0.010269 0.306951 0.311958 25.155050 18.987595 59.913271 -0.325356 -0.025139 -9.897442 -36.984842 -30.930180 -42.240906 23.755581 10.787064 16.808701 8.396997 -23.699805 -41.471907 -16.059706 -11.994304 21.110556 -20.986861 -9.711367 39.964257 -23.720344 -13.117352 11.596955 1.184282 26.031813 -38.572853 -24.221837 -36.364466 -32.022026 -12.469877 -18.778841 22.503518 -11.747574 -9.139670 24.650434 77.006239 1.462112 -3.951672 -47.590586 -32.804619 10.897550 -23.614132 17.190288 -37.131004 7.380787 -2.482984 -4.032711 8.850313 -3.859553 -4.843627 -9.667552 41.981630 -131.772090 -42.658595 11.029035 -21.494795 39.978020 8.755454 24.915835 22.846761 -5.145609 20.338338 25.959644 -13.163488 34.098046 -49.873032 10.697822 -132.018392 -131.538045 13.670067 28.722722 17.291417 60.267366 -114.292390 81.158693 16.997257 -4.691998 77.790429 10.295327 -10.089489 -84.000392 -7.199309 -78.878520 -98.263185 -29.340728 108.552493 -55.747901 -12.135101 -158.518767 37.870172 27.196631 -50.669783 75.005264 51.055529 -36.600102 -73.885196 -23.081750 -49.132774 -45.128647 -52.366077 41.957096 16.776380 -27.813145 7.388413 -75.492621 58.577430 65.963826 77.179545 -78.385801 9.918093 36.502499 -16.111565 17.170994 -0.645109 17.021150 -34.434554 -26.279915 1.124876 -1.429715 -6.427888 6.604886 19.592779 -47.364605 15.054552 14.004613 -11.390255 -26.516514 -29.140184 8.363579 13.345563 -28.843551 
-0.010179 0.311935 0.309243 23.298847 19.242708 59.443708 -0.325324 -0.025134 -9.896443 -35.214154 -29.519878 -41.443649 22.216574 11.970390 16.285420 10.020008 -23.698894 -41.335226 -15.959644 -11.945188 20.413777 -20.954715 -9.799758 39.158890 -20.937042 -11.833417 10.945688 0.694775 26.140368 -38.412185 -25.277748 -35.055430 -32.110541 -12.356379 -19.337835 23.191108 -11.565914 -9.440427 25.461993 77.442183 3.276384 -3.500959 -48.388275 -32.593003 11.643629 -21.814126 16.884525 -36.424584 6.881851 -2.354428 -3.746424 8.235649 -3.716422 -4.496561 -7.715777 42.630389 -130.877200 -42.658585 11.029028 -21.494809 39.149275 9.003851 24.199251 23.057176 -5.018082 20.692900 26.021543 -13.152518 34.634395 -48.349124 11.103988 -132.904528 -131.109846 13.602493 28.512642 17.274123 59.900132 -113.617823 81.193610 17.004969 -4.686649 77.828686 10.299833 -10.083579 -82.982257 -7.620812 -79.078741 -97.848512 -29.444220 108.047562 -56.037659 -11.834407 -155.680676 38.310622 27.689871 -50.735143 75.913646 51.439512 -36.320789 -73.885196 -23.081750 -49.132774 -46.762751 -47.420476 45.388054 15.542576 -27.871266 9.114053 -75.491577 58.577159 65.965363 66.491865 -77.260158 18.001261 34.618462 -15.101627 16.224365 1.012898 16.731866 -33.064932 -26.148842 0.686147 -1.145310 -7.541796 7.492708 16.937513 -46.207943 15.664310 14.000500 -11.513135 -26.355218 -29.400581 7.927693 13.761073 -29.318761 
-0.010040 0.319353 0.304996 20.685487 19.693319 58.473063 -0.325413 -0.025178 -9.896440 -32.670938 -27.339119 -40.206312 20.106840 13.551886 15.516228 12.105245 -23.866570 -41.010742 -15.815282 -11.868909 19.412669 -20.909120 -9.924703 38.001721 -17.184535 -9.852719 10.031083 -0.036429 26.303076 -38.171797 -26.388021 -33.963346 -32.010424 -12.261085 -19.845838 23.819112 -11.401800 -9.716731 26.201184 78.093228 5.594446 -2.967652 -49.443825 -32.294174 12.632437 -19.202311 16.435590 -35.366632 6.111496 -2.152597 -3.305144 7.288300 -3.481513 -3.969873 -4.796539 43.588058 -129.528456 -42.658565 11.029015 -21.494838 38.238856 9.263339 23.391205 23.300681 -4.869921 21.105182 26.089717 -13.137903 35.257190 -46.225424 11.608875 -134.052832 -130.480237 13.504542 28.195294 17.484885 59.756840 -112.624418 81.106528 16.989341 -4.705130 77.739783 10.290647 -10.092523 -81.467432 -8.189919 -79.586491 -97.305800 -29.572973 107.382097 -56.750461 -11.205346 -152.474248 38.607410 28.017286 -50.774553 76.535604 51.697480 -36.118232 -73.885236 -23.081720 -49.132846 -48.344243 -42.540579 48.989938 13.803463 -27.883913 11.411472 -75.491399 58.577130 65.965491 55.547194 -74.950162 25.969504 31.826163 -13.464524 15.456032 2.695770 16.461569 -31.633897 -25.969815 0.049269 -0.703637 -8.807605 8.457196 13.965552 -44.826711 16.338850 14.358753 -11.569542 -26.236007 -29.725348 7.511814 14.064695 -29.894356 
-0.009857 0.328459 0.299444 17.534001 20.190511 57.176782 -0.325413 -0.025178 -9.896440 -29.800619 -24.551637 -38.651678 17.941037 15.120976 14.678889 14.084180 -23.981473 -40.651531 -15.655579 -11.779147 18.314068 -20.852235 -10.055918 36.726772 -12.840198 -7.265098 8.944469 -0.851650 26.488454 -37.904394 -27.584670 -33.013099 -31.700669 -12.182723 -20.286393 24.367579 -11.259997 -9.958531 26.846180 78.975764 8.352748 -2.337726 -50.633621 -31.937034 13.743033 -16.211475 15.851877 -34.034139 5.221576 -1.909994 -2.798503 6.195534 -3.207016 -3.358540 -1.214481 44.749046 -127.857002 -42.658530 11.028992 -21.494888 37.226030 9.478359 22.484330 23.597943 -4.694485 21.604133 26.171484 -13.120313 36.012938 -43.729406 12.180686 -135.376815 -129.721355 13.394494 27.814241 17.902482 59.796944 -111.305554 80.892032 16.945502 -4.748519 77.528746 10.270085 -10.118405 -79.579979 -8.869097 -80.323576 -96.568952 -29.737838 106.482793 -57.625622 -10.277719 -148.995487 38.843705 28.282951 -50.809940 77.040033 51.903988 -35.956047 -73.885146 -23.081714 -49.132875 -49.272321 -38.622796 51.476068 11.893627 -27.732777 13.792508 -75.491399 58.577130 65.965491 46.700616 -71.644820 31.614846 28.427050 -11.373421 14.767128 4.387056 16.210851 -30.159636 -25.763087 -0.729508 -0.151757 -10.148844 9.416704 10.802847 -43.238398 17.036371 15.038961 -11.562090 -26.148775 -30.104861 7.111450 14.261658 -30.560430 
-0.009646 0.338166 0.293041 14.170804 20.599483 55.770398 -0.325578 -0.025142 -9.897430 -26.987327 -21.414240 -36.991012 16.053727 16.441504 13.909908 15.552701 -23.952570 -40.304867 -15.500699 -11.684711 17.267205 -20.790508 -10.179097 35.515493 -8.436573 -4.301973 7.832807 -1.571956 26.653731 -37.672107 -28.856823 -32.102243 -31.205846 -12.121860 -20.661960 24.834163 -11.144262 -10.166010 27.390116 80.033018 11.354901 -1.628672 -51.835093 -31.551870 14.865966 -13.164955 15.180286 -32.580817 4.295880 -1.645335 -2.276026 5.052282 -2.902700 -2.726848 2.578943 45.981220 -126.047582 -42.658605 11.029041 -21.494781 36.254910 9.660866 21.612154 23.884321 -4.528326 22.083514 26.253613 -13.106721 36.737014 -41.086505 12.744129 -136.739253 -128.792547 13.263221 27.348474 18.418508 59.840283 -109.748789 80.646577 16.898058 -4.799764 77.283498 10.251264 -10.146226 -77.546480 -9.581881 -81.179607 -95.707340 -29.918378 105.432000 -58.516313 -9.175928 -145.495467 39.028641 28.485547 -50.830126 77.427582 52.059811 -35.825541 -73.885196 -23.081750 -49.132774 -49.244731 -36.635453 51.814518 10.192500 -27.356636 15.696696 -75.491399 58.577130 65.965491 40.383045 -67.866786 34.757671 24.837984 -9.085433 14.096167 6.020708 15.979859 -28.715638 -25.551965 -1.560148 0.435489 -11.461071 10.284227 7.688657 -41.517712 17.704204 15.957985 -11.506525 -26.098704 -30.514776 6.741054 14.356659 -31.271847 
-0.009410 0.347969 0.285862 10.771740 20.845312 54.380319 -0.325324 -0.025134 -9.896443 -24.428556 -18.033092 -35.355929 14.615217 17.421253 13.295490 16.322052 -23.713449 -40.018911 -15.368802 -11.603710 16.387658 -20.734535 -10.280886 34.488013 -4.179960 -1.086382 6.751884 -2.140946 26.791557 -37.490038 -30.209241 -31.155942 -30.575592 -12.069554 -20.975532 25.221035 -11.045815 -10.338274 27.849683 81.209708 14.520871 -0.812451 -52.985073 -31.159360 15.940452 -10.302554 14.406486 -31.064141 3.459454 -1.399512 -1.806102 4.022062 -2.618588 -2.159797 6.379347 47.232276 -124.186052 -42.658600 11.029038 -21.494788 35.315975 9.793790 20.766480 24.170443 -4.366040 22.560103 26.330015 -13.090265 37.460490 -38.457381 13.300961 -138.089897 -127.791996 13.133092 26.840243 19.018915 59.876863 -108.004736 80.364019 16.842134 -4.856452 77.005841 10.223746 -10.177500 -75.501630 -10.270509 -82.067331 -94.820523 -30.088381 104.347012 -59.335865 -7.952893 -141.951687 39.191102 28.664034 -50.846447 77.762794 52.194725 -35.715317 -73.885196 -23.081750 -49.132774 -48.714135 -36.016880 50.792365 8.316904 -26.325990 17.117860 -75.492621 58.577430 65.963826 35.858821 -63.924192 36.215939 21.240424 -6.740488 13.384581 7.637288 15.765653 -27.272395 -25.347278 -2.401225 1.025779 -12.689843 11.026580 4.684785 -39.642790 18.327338 17.089007 -11.409177 -26.070490 -30.948053 6.390192 14.366099 -32.035217 
-0.009156 0.357050 0.278157 7.611678 20.861200 53.145460 -0.325324 -0.025134 -9.896443 -22.372076 -14.637283 -33.905883 13.808266 17.959280 12.943564 16.231548 -23.199831 -39.848217 -15.276661 -11.539573 15.765311 -20.694229 -10.351787 33.763313 -0.471035 2.151399 5.795371 -2.453888 26.865017 -37.387126 -31.507639 -30.120765 -29.914008 -12.036572 -21.192870 25.489519 -10.980200 -10.459434 28.164594 82.385173 17.648258 0.089659 -54.123953 -30.747538 17.003371 -7.653065 13.584781 -29.633236 2.702346 -1.168530 -1.384120 3.087334 -2.347913 -1.652244 9.855351 48.429491 -122.411671 -42.658600 11.029038 -21.494788 34.442948 9.880170 19.957088 24.460983 -4.203639 23.043304 26.413045 -13.078564 38.187860 -36.065112 13.825431 -139.340775 -126.823735 13.013611 26.344515 19.640290 59.905959 -106.249396 80.078284 16.788847 -4.917111 76.721736 10.198454 -10.207873 -73.608807 -10.898000 -82.872582 -93.882992 -30.253091 103.204914 -59.984118 -6.731629 -138.513324 39.356920 28.847515 -50.866545 78.115834 52.332743 -35.598085 -73.885196 -23.081750 -49.132774 -48.300615 -35.661735 49.867718 6.057491 -24.512045 18.141316 -75.491577 58.577159 65.965363 32.651053 -60.211784 36.663807 17.914986 -4.558861 12.652876 9.211083 15.567746 -25.856290 -25.162952 -3.183869 1.564585 -13.750928 11.592836 1.957037 -37.650220 18.875492 18.377493 -11.280003 -26.064959 -31.401719 6.058681 14.291130 -32.833483 
